<svg width="176" height="40" viewBox="0 0 40 40" fill="none" xmlns="http://www.w3.org/2000/svg"><path d="M19.808 0c-1.041 0-1.969 0-2.739.063-.821.067-1.68.218-2.52.645a6.5 6.5 0 0 0-2.84 2.841c-.428.84-.579 1.699-.646 2.52C11 6.84 11 7.767 11 8.81v11.383c0 1.041 0 1.969.063 2.739.067.821.218 1.68.646 2.52a6.5 6.5 0 0 0 2.84 2.84c.84.428 1.699.58 2.52.646.77.063 1.698.063 2.74.063H21.6a.4.4 0 0 0 .4-.4v-4.2a.4.4 0 0 0-.4-.4h-1.7c-1.161 0-1.882-.002-2.423-.046-.51-.042-.64-.108-.658-.117a1.501 1.501 0 0 1-.655-.656c-.01-.018-.076-.148-.118-.657C16.002 21.982 16 21.26 16 20.1V8.9c0-1.161.002-1.882.046-2.424.042-.509.108-.639.117-.657a1.5 1.5 0 0 1 .656-.655c.018-.01.149-.076.658-.118C18.018 5.002 18.739 5 19.9 5h11.2c1.161 0 1.882.002 2.424.046.509.042.639.108.657.117.282.144.512.374.656.656.009.018.075.148.117.657.044.542.046 1.263.046 2.424v11.2c0 1.161-.002 1.882-.046 2.424-.042.509-.108.639-.117.657a1.502 1.502 0 0 1-.656.655c-.018.01-.148.076-.657.118-.705.057-1.416.05-2.124.047a.398.398 0 0 0-.4.399v4.2c0 .22.18.4.4.4.844.003 1.69.006 2.53-.063.822-.067 1.682-.218 2.521-.646a6.5 6.5 0 0 0 2.84-2.84c.428-.84.58-1.699.646-2.52.063-.77.063-1.698.063-2.74V8.809c0-1.041 0-1.969-.063-2.739-.067-.821-.218-1.68-.645-2.52A6.5 6.5 0 0 0 36.45.71c-.839-.428-1.699-.58-2.52-.646C33.16 0 32.233 0 31.19 0H19.809Z" fill="#fff"/><path d="M9 11.4a.4.4 0 0 0-.4-.4c-.844-.003-1.69-.006-2.53.063-.822.067-1.682.218-2.52.646a6.5 6.5 0 0 0-2.842 2.84c-.427.84-.578 1.699-.645 2.52C0 17.84 0 18.767 0 19.81v11.383c0 1.041 0 1.969.063 2.739.067.821.218 1.681.645 2.52a6.5 6.5 0 0 0 2.841 2.84c.84.428 1.699.58 2.52.646C6.84 40 7.767 40 8.81 40h11.383c1.041 0 1.969 0 2.739-.063.821-.067 1.68-.218 2.52-.645a6.5 6.5 0 0 0 2.84-2.841c.428-.839.58-1.699.646-2.52.063-.77.063-1.698.063-2.74V19.809c0-1.041 0-1.969-.063-2.739-.067-.821-.218-1.68-.646-2.52a6.5 6.5 0 0 0-2.84-2.84c-.84-.428-1.699-.579-2.52-.646C22.16 11 21.233 11 20.19 11H18.4a.4.4 0 0 0-.4.4v4.2c0 .221.18.4.4.4h1.7c1.161 0 1.882.002 2.424.046.509.042.639.108.657.117a1.5 1.5 0 0 1 .655.656c.01.018.076.149.118.658.044.541.046 1.262.046 2.423v11.2c0 1.161-.002 1.882-.046 2.424-.042.509-.108.639-.117.657a1.502 1.502 0 0 1-.656.656c-.018.009-.148.075-.657.117-.542.044-1.263.046-2.424.046H8.9c-1.161 0-1.882-.002-2.424-.046-.509-.042-.639-.108-.657-.117a1.502 1.502 0 0 1-.655-.656c-.01-.018-.076-.148-.118-.657C5.002 32.982 5 32.26 5 31.1V19.9c0-1.161.002-1.882.046-2.423.042-.51.108-.64.117-.658.144-.282.374-.512.656-.655.018-.01.148-.076.657-.118.705-.057 1.416-.05 2.124-.047.22 0 .4-.178.4-.399v-4.2Z" fill="#fff"/></svg>